<svg xmlns="http://www.w3.org/2000/svg" viewBox="0 0 1000 160" width="100%" preserveAspectRatio="xMidYMid slice">
<style>
@keyframes rain { 0% { transform: translateY(-200px); } 100% { transform: translateY(200px); } }
.c { font-family: monospace; font-size: 14px; }
</style>
<rect width="1000" height="160" fill="#0D1117" rx="6"/>
<clipPath id="vp"><rect width="1000" height="160" rx="6"/></clipPath>
<g clip-path="url(#vp)">
<g style="animation:rain 3.9s -0.1s linear infinite">
<text class="c" x="12" y="0" fill="#00ff41" opacity="0.05">ス</text>
<text class="c" x="12" y="16" fill="#00ff41" opacity="0.05">シ</text>
<text class="c" x="12" y="32" fill="#00ff41" opacity="0.1">ラ</text>
<text class="c" x="12" y="48" fill="#00ff41" opacity="0.15">マ</text>
<text class="c" x="12" y="64" fill="#00ff41" opacity="0.2">F</text>
<text class="c" x="12" y="80" fill="#00ff41" opacity="0.6">ハ</text>
<text class="c" x="12" y="96" fill="#00ff41" opacity="0.75">></text>
<text class="c" x="12" y="112" fill="#fff" opacity="1">9</text>
</g>
<g style="animation:rain 2.1s -0.5s linear infinite">
<text class="c" x="37" y="0" fill="#00ff41" opacity="0.05">D</text>
<text class="c" x="37" y="16" fill="#00ff41" opacity="0.06">{</text>
<text class="c" x="37" y="32" fill="#00ff41" opacity="0.11">カ</text>
<text class="c" x="37" y="48" fill="#00ff41" opacity="0.17"><</text>
<text class="c" x="37" y="64" fill="#00ff41" opacity="0.6">ケ</text>
<text class="c" x="37" y="80" fill="#00ff41" opacity="0.75">;</text>
<text class="c" x="37" y="96" fill="#fff" opacity="1">F</text>
</g>
<g style="animation:rain 3.3s -2.2s linear infinite">
<text class="c" x="62" y="0" fill="#00ff41" opacity="0.05">ア</text>
<text class="c" x="62" y="16" fill="#00ff41" opacity="0.05">キ</text>
<text class="c" x="62" y="32" fill="#00ff41" opacity="0.1">9</text>
<text class="c" x="62" y="48" fill="#00ff41" opacity="0.15">3</text>
<text class="c" x="62" y="64" fill="#00ff41" opacity="0.2">ソ</text>
<text class="c" x="62" y="80" fill="#00ff41" opacity="0.6">ワ</text>
<text class="c" x="62" y="96" fill="#00ff41" opacity="0.75">コ</text>
<text class="c" x="62" y="112" fill="#fff" opacity="1">3</text>
</g>
<g style="animation:rain 2.3s -1.9s linear infinite">
<text class="c" x="87" y="0" fill="#00ff41" opacity="0.05">4</text>
<text class="c" x="87" y="16" fill="#00ff41" opacity="0.05">{</text>
<text class="c" x="87" y="32" fill="#00ff41" opacity="0.1">セ</text>
<text class="c" x="87" y="48" fill="#00ff41" opacity="0.15">サ</text>
<text class="c" x="87" y="64" fill="#00ff41" opacity="0.2">A</text>
<text class="c" x="87" y="80" fill="#00ff41" opacity="0.6">F</text>
<text class="c" x="87" y="96" fill="#00ff41" opacity="0.75">ヤ</text>
<text class="c" x="87" y="112" fill="#fff" opacity="1">6</text>
</g>
<g style="animation:rain 2.2s -1.5s linear infinite">
<text class="c" x="112" y="0" fill="#00ff41" opacity="0.05">}</text>
<text class="c" x="112" y="16" fill="#00ff41" opacity="0.05">5</text>
<text class="c" x="112" y="32" fill="#00ff41" opacity="0.07">/</text>
<text class="c" x="112" y="48" fill="#00ff41" opacity="0.11">ケ</text>
<text class="c" x="112" y="64" fill="#00ff41" opacity="0.15">ナ</text>
<text class="c" x="112" y="80" fill="#00ff41" opacity="0.18">サ</text>
<text class="c" x="112" y="96" fill="#00ff41" opacity="0.22">シ</text>
<text class="c" x="112" y="112" fill="#00ff41" opacity="0.25">0</text>
<text class="c" x="112" y="128" fill="#00ff41" opacity="0.6">ハ</text>
<text class="c" x="112" y="144" fill="#00ff41" opacity="0.75">シ</text>
<text class="c" x="112" y="160" fill="#fff" opacity="1">マ</text>
</g>
<g style="animation:rain 3.1s -2.3s linear infinite">
<text class="c" x="137" y="0" fill="#00ff41" opacity="0.05">5</text>
<text class="c" x="137" y="16" fill="#00ff41" opacity="0.05">キ</text>
<text class="c" x="137" y="32" fill="#00ff41" opacity="0.07">5</text>
<text class="c" x="137" y="48" fill="#00ff41" opacity="0.1">4</text>
<text class="c" x="137" y="64" fill="#00ff41" opacity="0.13">コ</text>
<text class="c" x="137" y="80" fill="#00ff41" opacity="0.17">ソ</text>
<text class="c" x="137" y="96" fill="#00ff41" opacity="0.2">;</text>
<text class="c" x="137" y="112" fill="#00ff41" opacity="0.23">ナ</text>
<text class="c" x="137" y="128" fill="#00ff41" opacity="0.27">{</text>
<text class="c" x="137" y="144" fill="#00ff41" opacity="0.6">=</text>
<text class="c" x="137" y="160" fill="#00ff41" opacity="0.75">キ</text>
<text class="c" x="137" y="176" fill="#fff" opacity="1">F</text>
</g>
<g style="animation:rain 4.2s -0.8s linear infinite">
<text class="c" x="162" y="0" fill="#00ff41" opacity="0.05">ソ</text>
<text class="c" x="162" y="16" fill="#00ff41" opacity="0.05">=</text>
<text class="c" x="162" y="32" fill="#00ff41" opacity="0.09"><</text>
<text class="c" x="162" y="48" fill="#00ff41" opacity="0.13">シ</text>
<text class="c" x="162" y="64" fill="#00ff41" opacity="0.18">2</text>
<text class="c" x="162" y="80" fill="#00ff41" opacity="0.22">タ</text>
<text class="c" x="162" y="96" fill="#00ff41" opacity="0.6">シ</text>
<text class="c" x="162" y="112" fill="#00ff41" opacity="0.75">サ</text>
<text class="c" x="162" y="128" fill="#fff" opacity="1">2</text>
</g>
<g style="animation:rain 3.2s -0.3s linear infinite">
<text class="c" x="187" y="0" fill="#00ff41" opacity="0.05">2</text>
<text class="c" x="187" y="16" fill="#00ff41" opacity="0.05">コ</text>
<text class="c" x="187" y="32" fill="#00ff41" opacity="0.08">;</text>
<text class="c" x="187" y="48" fill="#00ff41" opacity="0.12">C</text>
<text class="c" x="187" y="64" fill="#00ff41" opacity="0.16">7</text>
<text class="c" x="187" y="80" fill="#00ff41" opacity="0.2">;</text>
<text class="c" x="187" y="96" fill="#00ff41" opacity="0.24">A</text>
<text class="c" x="187" y="112" fill="#00ff41" opacity="0.6">ワ</text>
<text class="c" x="187" y="128" fill="#00ff41" opacity="0.75">セ</text>
<text class="c" x="187" y="144" fill="#fff" opacity="1">ラ</text>
</g>
<g style="animation:rain 2.7s -2.8s linear infinite">
<text class="c" x="212" y="0" fill="#00ff41" opacity="0.05">></text>
<text class="c" x="212" y="16" fill="#00ff41" opacity="0.05">9</text>
<text class="c" x="212" y="32" fill="#00ff41" opacity="0.1">></text>
<text class="c" x="212" y="48" fill="#00ff41" opacity="0.15">7</text>
<text class="c" x="212" y="64" fill="#00ff41" opacity="0.2">5</text>
<text class="c" x="212" y="80" fill="#00ff41" opacity="0.6">シ</text>
<text class="c" x="212" y="96" fill="#00ff41" opacity="0.75">ラ</text>
<text class="c" x="212" y="112" fill="#fff" opacity="1">D</text>
</g>
<g style="animation:rain 3.5s -3.8s linear infinite">
<text class="c" x="237" y="0" fill="#00ff41" opacity="0.05">ヤ</text>
<text class="c" x="237" y="16" fill="#00ff41" opacity="0.05">ワ</text>
<text class="c" x="237" y="32" fill="#00ff41" opacity="0.07">=</text>
<text class="c" x="237" y="48" fill="#00ff41" opacity="0.1">キ</text>
<text class="c" x="237" y="64" fill="#00ff41" opacity="0.13">9</text>
<text class="c" x="237" y="80" fill="#00ff41" opacity="0.17">{</text>
<text class="c" x="237" y="96" fill="#00ff41" opacity="0.2">ナ</text>
<text class="c" x="237" y="112" fill="#00ff41" opacity="0.23">6</text>
<text class="c" x="237" y="128" fill="#00ff41" opacity="0.27">6</text>
<text class="c" x="237" y="144" fill="#00ff41" opacity="0.6">{</text>
<text class="c" x="237" y="160" fill="#00ff41" opacity="0.75">A</text>
<text class="c" x="237" y="176" fill="#fff" opacity="1">E</text>
</g>
<g style="animation:rain 2.8s -2.8s linear infinite">
<text class="c" x="262" y="0" fill="#00ff41" opacity="0.05">ヤ</text>
<text class="c" x="262" y="16" fill="#00ff41" opacity="0.07">F</text>
<text class="c" x="262" y="32" fill="#00ff41" opacity="0.13">ソ</text>
<text class="c" x="262" y="48" fill="#00ff41" opacity="0.6">;</text>
<text class="c" x="262" y="64" fill="#00ff41" opacity="0.75">3</text>
<text class="c" x="262" y="80" fill="#fff" opacity="1">ヤ</text>
</g>
<g style="animation:rain 2.9s -0.8s linear infinite">
<text class="c" x="287" y="0" fill="#00ff41" opacity="0.05">セ</text>
<text class="c" x="287" y="16" fill="#00ff41" opacity="0.07">D</text>
<text class="c" x="287" y="32" fill="#00ff41" opacity="0.13">ク</text>
<text class="c" x="287" y="48" fill="#00ff41" opacity="0.6">D</text>
<text class="c" x="287" y="64" fill="#00ff41" opacity="0.75">マ</text>
<text class="c" x="287" y="80" fill="#fff" opacity="1">=</text>
</g>
<g style="animation:rain 2.9s -3.2s linear infinite">
<text class="c" x="312" y="0" fill="#00ff41" opacity="0.05">ケ</text>
<text class="c" x="312" y="16" fill="#00ff41" opacity="0.05">ワ</text>
<text class="c" x="312" y="32" fill="#00ff41" opacity="0.08">5</text>
<text class="c" x="312" y="48" fill="#00ff41" opacity="0.12">キ</text>
<text class="c" x="312" y="64" fill="#00ff41" opacity="0.16">F</text>
<text class="c" x="312" y="80" fill="#00ff41" opacity="0.2">E</text>
<text class="c" x="312" y="96" fill="#00ff41" opacity="0.24">ア</text>
<text class="c" x="312" y="112" fill="#00ff41" opacity="0.6">{</text>
<text class="c" x="312" y="128" fill="#00ff41" opacity="0.75">2</text>
<text class="c" x="312" y="144" fill="#fff" opacity="1">C</text>
</g>
<g style="animation:rain 2.1s -4.6s linear infinite">
<text class="c" x="337" y="0" fill="#00ff41" opacity="0.05">1</text>
<text class="c" x="337" y="16" fill="#00ff41" opacity="0.05">ス</text>
<text class="c" x="337" y="32" fill="#00ff41" opacity="0.07">タ</text>
<text class="c" x="337" y="48" fill="#00ff41" opacity="0.1">ス</text>
<text class="c" x="337" y="64" fill="#00ff41" opacity="0.13">/</text>
<text class="c" x="337" y="80" fill="#00ff41" opacity="0.17">ハ</text>
<text class="c" x="337" y="96" fill="#00ff41" opacity="0.2">ハ</text>
<text class="c" x="337" y="112" fill="#00ff41" opacity="0.23">C</text>
<text class="c" x="337" y="128" fill="#00ff41" opacity="0.27">ナ</text>
<text class="c" x="337" y="144" fill="#00ff41" opacity="0.6">F</text>
<text class="c" x="337" y="160" fill="#00ff41" opacity="0.75">ラ</text>
<text class="c" x="337" y="176" fill="#fff" opacity="1">ラ</text>
</g>
<g style="animation:rain 4.0s -4.7s linear infinite">
<text class="c" x="362" y="0" fill="#00ff41" opacity="0.05">セ</text>
<text class="c" x="362" y="16" fill="#00ff41" opacity="0.06">E</text>
<text class="c" x="362" y="32" fill="#00ff41" opacity="0.11">{</text>
<text class="c" x="362" y="48" fill="#00ff41" opacity="0.17">9</text>
<text class="c" x="362" y="64" fill="#00ff41" opacity="0.6">コ</text>
<text class="c" x="362" y="80" fill="#00ff41" opacity="0.75">F</text>
<text class="c" x="362" y="96" fill="#fff" opacity="1">ケ</text>
</g>
<g style="animation:rain 4.1s -2.0s linear infinite">
<text class="c" x="387" y="0" fill="#00ff41" opacity="0.05">;</text>
<text class="c" x="387" y="16" fill="#00ff41" opacity="0.05">5</text>
<text class="c" x="387" y="32" fill="#00ff41" opacity="0.07">0</text>
<text class="c" x="387" y="48" fill="#00ff41" opacity="0.11">E</text>
<text class="c" x="387" y="64" fill="#00ff41" opacity="0.15">0</text>
<text class="c" x="387" y="80" fill="#00ff41" opacity="0.18">ヤ</text>
<text class="c" x="387" y="96" fill="#00ff41" opacity="0.22">ス</text>
<text class="c" x="387" y="112" fill="#00ff41" opacity="0.25">シ</text>
<text class="c" x="387" y="128" fill="#00ff41" opacity="0.6">ナ</text>
<text class="c" x="387" y="144" fill="#00ff41" opacity="0.75">3</text>
<text class="c" x="387" y="160" fill="#fff" opacity="1">カ</text>
</g>
<g style="animation:rain 3.8s -1.2s linear infinite">
<text class="c" x="412" y="0" fill="#00ff41" opacity="0.05">ア</text>
<text class="c" x="412" y="16" fill="#00ff41" opacity="0.06">ナ</text>
<text class="c" x="412" y="32" fill="#00ff41" opacity="0.11">=</text>
<text class="c" x="412" y="48" fill="#00ff41" opacity="0.17">タ</text>
<text class="c" x="412" y="64" fill="#00ff41" opacity="0.6">シ</text>
<text class="c" x="412" y="80" fill="#00ff41" opacity="0.75">ナ</text>
<text class="c" x="412" y="96" fill="#fff" opacity="1">サ</text>
</g>
<g style="animation:rain 4.6s -0.4s linear infinite">
<text class="c" x="437" y="0" fill="#00ff41" opacity="0.05">ソ</text>
<text class="c" x="437" y="16" fill="#00ff41" opacity="0.06">C</text>
<text class="c" x="437" y="32" fill="#00ff41" opacity="0.11">コ</text>
<text class="c" x="437" y="48" fill="#00ff41" opacity="0.17">F</text>
<text class="c" x="437" y="64" fill="#00ff41" opacity="0.6">ラ</text>
<text class="c" x="437" y="80" fill="#00ff41" opacity="0.75">/</text>
<text class="c" x="437" y="96" fill="#fff" opacity="1">/</text>
</g>
<g style="animation:rain 3.4s -3.9s linear infinite">
<text class="c" x="462" y="0" fill="#00ff41" opacity="0.05">8</text>
<text class="c" x="462" y="16" fill="#00ff41" opacity="0.05">ケ</text>
<text class="c" x="462" y="32" fill="#00ff41" opacity="0.07">マ</text>
<text class="c" x="462" y="48" fill="#00ff41" opacity="0.1">マ</text>
<text class="c" x="462" y="64" fill="#00ff41" opacity="0.13">9</text>
<text class="c" x="462" y="80" fill="#00ff41" opacity="0.17">4</text>
<text class="c" x="462" y="96" fill="#00ff41" opacity="0.2">9</text>
<text class="c" x="462" y="112" fill="#00ff41" opacity="0.23">8</text>
<text class="c" x="462" y="128" fill="#00ff41" opacity="0.27">A</text>
<text class="c" x="462" y="144" fill="#00ff41" opacity="0.6">タ</text>
<text class="c" x="462" y="160" fill="#00ff41" opacity="0.75">;</text>
<text class="c" x="462" y="176" fill="#fff" opacity="1">;</text>
</g>
<g style="animation:rain 2.3s -2.0s linear infinite">
<text class="c" x="487" y="0" fill="#00ff41" opacity="0.05">マ</text>
<text class="c" x="487" y="16" fill="#00ff41" opacity="0.05">ス</text>
<text class="c" x="487" y="32" fill="#00ff41" opacity="0.1">ケ</text>
<text class="c" x="487" y="48" fill="#00ff41" opacity="0.15">ケ</text>
<text class="c" x="487" y="64" fill="#00ff41" opacity="0.2">F</text>
<text class="c" x="487" y="80" fill="#00ff41" opacity="0.6">0</text>
<text class="c" x="487" y="96" fill="#00ff41" opacity="0.75">ラ</text>
<text class="c" x="487" y="112" fill="#fff" opacity="1">9</text>
</g>
<g style="animation:rain 2.6s -2.3s linear infinite">
<text class="c" x="512" y="0" fill="#00ff41" opacity="0.05">ナ</text>
<text class="c" x="512" y="16" fill="#00ff41" opacity="0.05">0</text>
<text class="c" x="512" y="32" fill="#00ff41" opacity="0.07"><</text>
<text class="c" x="512" y="48" fill="#00ff41" opacity="0.1">マ</text>
<text class="c" x="512" y="64" fill="#00ff41" opacity="0.13">タ</text>
<text class="c" x="512" y="80" fill="#00ff41" opacity="0.17">;</text>
<text class="c" x="512" y="96" fill="#00ff41" opacity="0.2">F</text>
<text class="c" x="512" y="112" fill="#00ff41" opacity="0.23">ア</text>
<text class="c" x="512" y="128" fill="#00ff41" opacity="0.27">ハ</text>
<text class="c" x="512" y="144" fill="#00ff41" opacity="0.6">ス</text>
<text class="c" x="512" y="160" fill="#00ff41" opacity="0.75">キ</text>
<text class="c" x="512" y="176" fill="#fff" opacity="1">8</text>
</g>
<g style="animation:rain 3.5s -1.1s linear infinite">
<text class="c" x="537" y="0" fill="#00ff41" opacity="0.05">タ</text>
<text class="c" x="537" y="16" fill="#00ff41" opacity="0.05">キ</text>
<text class="c" x="537" y="32" fill="#00ff41" opacity="0.09">6</text>
<text class="c" x="537" y="48" fill="#00ff41" opacity="0.13">ア</text>
<text class="c" x="537" y="64" fill="#00ff41" opacity="0.18">6</text>
<text class="c" x="537" y="80" fill="#00ff41" opacity="0.22">セ</text>
<text class="c" x="537" y="96" fill="#00ff41" opacity="0.6">A</text>
<text class="c" x="537" y="112" fill="#00ff41" opacity="0.75">0</text>
<text class="c" x="537" y="128" fill="#fff" opacity="1">9</text>
</g>
<g style="animation:rain 4.1s -3.7s linear infinite">
<text class="c" x="562" y="0" fill="#00ff41" opacity="0.05"><</text>
<text class="c" x="562" y="16" fill="#00ff41" opacity="0.05">C</text>
<text class="c" x="562" y="32" fill="#00ff41" opacity="0.07">ワ</text>
<text class="c" x="562" y="48" fill="#00ff41" opacity="0.1">ケ</text>
<text class="c" x="562" y="64" fill="#00ff41" opacity="0.13">0</text>
<text class="c" x="562" y="80" fill="#00ff41" opacity="0.17">コ</text>
<text class="c" x="562" y="96" fill="#00ff41" opacity="0.2">タ</text>
<text class="c" x="562" y="112" fill="#00ff41" opacity="0.23">></text>
<text class="c" x="562" y="128" fill="#00ff41" opacity="0.27">F</text>
<text class="c" x="562" y="144" fill="#00ff41" opacity="0.6">タ</text>
<text class="c" x="562" y="160" fill="#00ff41" opacity="0.75">2</text>
<text class="c" x="562" y="176" fill="#fff" opacity="1">タ</text>
</g>
<g style="animation:rain 2.2s -2.4s linear infinite">
<text class="c" x="587" y="0" fill="#00ff41" opacity="0.05">E</text>
<text class="c" x="587" y="16" fill="#00ff41" opacity="0.05">キ</text>
<text class="c" x="587" y="32" fill="#00ff41" opacity="0.07">タ</text>
<text class="c" x="587" y="48" fill="#00ff41" opacity="0.1">D</text>
<text class="c" x="587" y="64" fill="#00ff41" opacity="0.13">ハ</text>
<text class="c" x="587" y="80" fill="#00ff41" opacity="0.17">ク</text>
<text class="c" x="587" y="96" fill="#00ff41" opacity="0.2">ナ</text>
<text class="c" x="587" y="112" fill="#00ff41" opacity="0.23">{</text>
<text class="c" x="587" y="128" fill="#00ff41" opacity="0.27">ナ</text>
<text class="c" x="587" y="144" fill="#00ff41" opacity="0.6">ス</text>
<text class="c" x="587" y="160" fill="#00ff41" opacity="0.75">7</text>
<text class="c" x="587" y="176" fill="#fff" opacity="1">ヤ</text>
</g>
<g style="animation:rain 4.8s -2.8s linear infinite">
<text class="c" x="612" y="0" fill="#00ff41" opacity="0.05">{</text>
<text class="c" x="612" y="16" fill="#00ff41" opacity="0.05">サ</text>
<text class="c" x="612" y="32" fill="#00ff41" opacity="0.08">}</text>
<text class="c" x="612" y="48" fill="#00ff41" opacity="0.12">ハ</text>
<text class="c" x="612" y="64" fill="#00ff41" opacity="0.16">8</text>
<text class="c" x="612" y="80" fill="#00ff41" opacity="0.2">></text>
<text class="c" x="612" y="96" fill="#00ff41" opacity="0.24">/</text>
<text class="c" x="612" y="112" fill="#00ff41" opacity="0.6">E</text>
<text class="c" x="612" y="128" fill="#00ff41" opacity="0.75">2</text>
<text class="c" x="612" y="144" fill="#fff" opacity="1">セ</text>
</g>
<g style="animation:rain 2.6s -3.6s linear infinite">
<text class="c" x="637" y="0" fill="#00ff41" opacity="0.05">セ</text>
<text class="c" x="637" y="16" fill="#00ff41" opacity="0.06">7</text>
<text class="c" x="637" y="32" fill="#00ff41" opacity="0.11">ラ</text>
<text class="c" x="637" y="48" fill="#00ff41" opacity="0.17">;</text>
<text class="c" x="637" y="64" fill="#00ff41" opacity="0.6">1</text>
<text class="c" x="637" y="80" fill="#00ff41" opacity="0.75">A</text>
<text class="c" x="637" y="96" fill="#fff" opacity="1">2</text>
</g>
<g style="animation:rain 4.8s -4.7s linear infinite">
<text class="c" x="662" y="0" fill="#00ff41" opacity="0.05">A</text>
<text class="c" x="662" y="16" fill="#00ff41" opacity="0.07">}</text>
<text class="c" x="662" y="32" fill="#00ff41" opacity="0.13">/</text>
<text class="c" x="662" y="48" fill="#00ff41" opacity="0.6">マ</text>
<text class="c" x="662" y="64" fill="#00ff41" opacity="0.75">ナ</text>
<text class="c" x="662" y="80" fill="#fff" opacity="1">F</text>
</g>
<g style="animation:rain 2.6s -1.3s linear infinite">
<text class="c" x="687" y="0" fill="#00ff41" opacity="0.05">ナ</text>
<text class="c" x="687" y="16" fill="#00ff41" opacity="0.05">ス</text>
<text class="c" x="687" y="32" fill="#00ff41" opacity="0.1">5</text>
<text class="c" x="687" y="48" fill="#00ff41" opacity="0.15">0</text>
<text class="c" x="687" y="64" fill="#00ff41" opacity="0.2">キ</text>
<text class="c" x="687" y="80" fill="#00ff41" opacity="0.6">0</text>
<text class="c" x="687" y="96" fill="#00ff41" opacity="0.75">F</text>
<text class="c" x="687" y="112" fill="#fff" opacity="1">1</text>
</g>
<g style="animation:rain 3.8s -4.9s linear infinite">
<text class="c" x="712" y="0" fill="#00ff41" opacity="0.05">E</text>
<text class="c" x="712" y="16" fill="#00ff41" opacity="0.05">ア</text>
<text class="c" x="712" y="32" fill="#00ff41" opacity="0.07"><</text>
<text class="c" x="712" y="48" fill="#00ff41" opacity="0.11">1</text>
<text class="c" x="712" y="64" fill="#00ff41" opacity="0.15">マ</text>
<text class="c" x="712" y="80" fill="#00ff41" opacity="0.18">ラ</text>
<text class="c" x="712" y="96" fill="#00ff41" opacity="0.22">セ</text>
<text class="c" x="712" y="112" fill="#00ff41" opacity="0.25">ヤ</text>
<text class="c" x="712" y="128" fill="#00ff41" opacity="0.6">マ</text>
<text class="c" x="712" y="144" fill="#00ff41" opacity="0.75"><</text>
<text class="c" x="712" y="160" fill="#fff" opacity="1">ワ</text>
</g>
<g style="animation:rain 2.8s -3.0s linear infinite">
<text class="c" x="737" y="0" fill="#00ff41" opacity="0.05">3</text>
<text class="c" x="737" y="16" fill="#00ff41" opacity="0.05">コ</text>
<text class="c" x="737" y="32" fill="#00ff41" opacity="0.07">=</text>
<text class="c" x="737" y="48" fill="#00ff41" opacity="0.11">セ</text>
<text class="c" x="737" y="64" fill="#00ff41" opacity="0.15">D</text>
<text class="c" x="737" y="80" fill="#00ff41" opacity="0.18">C</text>
<text class="c" x="737" y="96" fill="#00ff41" opacity="0.22">セ</text>
<text class="c" x="737" y="112" fill="#00ff41" opacity="0.25">タ</text>
<text class="c" x="737" y="128" fill="#00ff41" opacity="0.6">ハ</text>
<text class="c" x="737" y="144" fill="#00ff41" opacity="0.75">=</text>
<text class="c" x="737" y="160" fill="#fff" opacity="1">9</text>
</g>
<g style="animation:rain 4.5s -0.2s linear infinite">
<text class="c" x="762" y="0" fill="#00ff41" opacity="0.05">ラ</text>
<text class="c" x="762" y="16" fill="#00ff41" opacity="0.05">=</text>
<text class="c" x="762" y="32" fill="#00ff41" opacity="0.1">セ</text>
<text class="c" x="762" y="48" fill="#00ff41" opacity="0.15">キ</text>
<text class="c" x="762" y="64" fill="#00ff41" opacity="0.2">0</text>
<text class="c" x="762" y="80" fill="#00ff41" opacity="0.6"><</text>
<text class="c" x="762" y="96" fill="#00ff41" opacity="0.75">9</text>
<text class="c" x="762" y="112" fill="#fff" opacity="1"><</text>
</g>
<g style="animation:rain 2.0s -0.4s linear infinite">
<text class="c" x="787" y="0" fill="#00ff41" opacity="0.05">ワ</text>
<text class="c" x="787" y="16" fill="#00ff41" opacity="0.05">F</text>
<text class="c" x="787" y="32" fill="#00ff41" opacity="0.07">サ</text>
<text class="c" x="787" y="48" fill="#00ff41" opacity="0.11">5</text>
<text class="c" x="787" y="64" fill="#00ff41" opacity="0.15">></text>
<text class="c" x="787" y="80" fill="#00ff41" opacity="0.18"><</text>
<text class="c" x="787" y="96" fill="#00ff41" opacity="0.22">ワ</text>
<text class="c" x="787" y="112" fill="#00ff41" opacity="0.25">9</text>
<text class="c" x="787" y="128" fill="#00ff41" opacity="0.6">ラ</text>
<text class="c" x="787" y="144" fill="#00ff41" opacity="0.75">サ</text>
<text class="c" x="787" y="160" fill="#fff" opacity="1">1</text>
</g>
<g style="animation:rain 3.1s -4.7s linear infinite">
<text class="c" x="812" y="0" fill="#00ff41" opacity="0.05">サ</text>
<text class="c" x="812" y="16" fill="#00ff41" opacity="0.05">4</text>
<text class="c" x="812" y="32" fill="#00ff41" opacity="0.07">コ</text>
<text class="c" x="812" y="48" fill="#00ff41" opacity="0.1">ス</text>
<text class="c" x="812" y="64" fill="#00ff41" opacity="0.13">マ</text>
<text class="c" x="812" y="80" fill="#00ff41" opacity="0.17">4</text>
<text class="c" x="812" y="96" fill="#00ff41" opacity="0.2"><</text>
<text class="c" x="812" y="112" fill="#00ff41" opacity="0.23">8</text>
<text class="c" x="812" y="128" fill="#00ff41" opacity="0.27">}</text>
<text class="c" x="812" y="144" fill="#00ff41" opacity="0.6">ワ</text>
<text class="c" x="812" y="160" fill="#00ff41" opacity="0.75">ス</text>
<text class="c" x="812" y="176" fill="#fff" opacity="1">キ</text>
</g>
<g style="animation:rain 4.9s -4.1s linear infinite">
<text class="c" x="837" y="0" fill="#00ff41" opacity="0.05">カ</text>
<text class="c" x="837" y="16" fill="#00ff41" opacity="0.05">ク</text>
<text class="c" x="837" y="32" fill="#00ff41" opacity="0.09">3</text>
<text class="c" x="837" y="48" fill="#00ff41" opacity="0.13">8</text>
<text class="c" x="837" y="64" fill="#00ff41" opacity="0.18">ス</text>
<text class="c" x="837" y="80" fill="#00ff41" opacity="0.22">ソ</text>
<text class="c" x="837" y="96" fill="#00ff41" opacity="0.6">キ</text>
<text class="c" x="837" y="112" fill="#00ff41" opacity="0.75">マ</text>
<text class="c" x="837" y="128" fill="#fff" opacity="1">6</text>
</g>
<g style="animation:rain 4.6s -4.3s linear infinite">
<text class="c" x="862" y="0" fill="#00ff41" opacity="0.05">ケ</text>
<text class="c" x="862" y="16" fill="#00ff41" opacity="0.06">A</text>
<text class="c" x="862" y="32" fill="#00ff41" opacity="0.11">4</text>
<text class="c" x="862" y="48" fill="#00ff41" opacity="0.17">1</text>
<text class="c" x="862" y="64" fill="#00ff41" opacity="0.6">シ</text>
<text class="c" x="862" y="80" fill="#00ff41" opacity="0.75">シ</text>
<text class="c" x="862" y="96" fill="#fff" opacity="1">カ</text>
</g>
<g style="animation:rain 4.0s -2.0s linear infinite">
<text class="c" x="887" y="0" fill="#00ff41" opacity="0.05">ナ</text>
<text class="c" x="887" y="16" fill="#00ff41" opacity="0.05">ソ</text>
<text class="c" x="887" y="32" fill="#00ff41" opacity="0.1">4</text>
<text class="c" x="887" y="48" fill="#00ff41" opacity="0.15">;</text>
<text class="c" x="887" y="64" fill="#00ff41" opacity="0.2">D</text>
<text class="c" x="887" y="80" fill="#00ff41" opacity="0.6">7</text>
<text class="c" x="887" y="96" fill="#00ff41" opacity="0.75">F</text>
<text class="c" x="887" y="112" fill="#fff" opacity="1">3</text>
</g>
<g style="animation:rain 4.8s -0.6s linear infinite">
<text class="c" x="912" y="0" fill="#00ff41" opacity="0.05">ク</text>
<text class="c" x="912" y="16" fill="#00ff41" opacity="0.05">></text>
<text class="c" x="912" y="32" fill="#00ff41" opacity="0.1">セ</text>
<text class="c" x="912" y="48" fill="#00ff41" opacity="0.15">サ</text>
<text class="c" x="912" y="64" fill="#00ff41" opacity="0.2">マ</text>
<text class="c" x="912" y="80" fill="#00ff41" opacity="0.6">{</text>
<text class="c" x="912" y="96" fill="#00ff41" opacity="0.75">9</text>
<text class="c" x="912" y="112" fill="#fff" opacity="1">4</text>
</g>
<g style="animation:rain 4.2s -1.6s linear infinite">
<text class="c" x="937" y="0" fill="#00ff41" opacity="0.05">D</text>
<text class="c" x="937" y="16" fill="#00ff41" opacity="0.05">ヤ</text>
<text class="c" x="937" y="32" fill="#00ff41" opacity="0.08">6</text>
<text class="c" x="937" y="48" fill="#00ff41" opacity="0.12">/</text>
<text class="c" x="937" y="64" fill="#00ff41" opacity="0.16">ケ</text>
<text class="c" x="937" y="80" fill="#00ff41" opacity="0.2">セ</text>
<text class="c" x="937" y="96" fill="#00ff41" opacity="0.24">サ</text>
<text class="c" x="937" y="112" fill="#00ff41" opacity="0.6">9</text>
<text class="c" x="937" y="128" fill="#00ff41" opacity="0.75">ア</text>
<text class="c" x="937" y="144" fill="#fff" opacity="1">E</text>
</g>
<g style="animation:rain 4.8s -2.7s linear infinite">
<text class="c" x="962" y="0" fill="#00ff41" opacity="0.05">ケ</text>
<text class="c" x="962" y="16" fill="#00ff41" opacity="0.05">5</text>
<text class="c" x="962" y="32" fill="#00ff41" opacity="0.07">9</text>
<text class="c" x="962" y="48" fill="#00ff41" opacity="0.11">ナ</text>
<text class="c" x="962" y="64" fill="#00ff41" opacity="0.15">3</text>
<text class="c" x="962" y="80" fill="#00ff41" opacity="0.18">}</text>
<text class="c" x="962" y="96" fill="#00ff41" opacity="0.22">2</text>
<text class="c" x="962" y="112" fill="#00ff41" opacity="0.25">ヤ</text>
<text class="c" x="962" y="128" fill="#00ff41" opacity="0.6">1</text>
<text class="c" x="962" y="144" fill="#00ff41" opacity="0.75">D</text>
<text class="c" x="962" y="160" fill="#fff" opacity="1">1</text>
</g>
<g style="animation:rain 4.0s -1.6s linear infinite">
<text class="c" x="987" y="0" fill="#00ff41" opacity="0.05">0</text>
<text class="c" x="987" y="16" fill="#00ff41" opacity="0.05"><</text>
<text class="c" x="987" y="32" fill="#00ff41" opacity="0.07">ラ</text>
<text class="c" x="987" y="48" fill="#00ff41" opacity="0.11">ケ</text>
<text class="c" x="987" y="64" fill="#00ff41" opacity="0.15">8</text>
<text class="c" x="987" y="80" fill="#00ff41" opacity="0.18">6</text>
<text class="c" x="987" y="96" fill="#00ff41" opacity="0.22">ク</text>
<text class="c" x="987" y="112" fill="#00ff41" opacity="0.25">}</text>
<text class="c" x="987" y="128" fill="#00ff41" opacity="0.6">/</text>
<text class="c" x="987" y="144" fill="#00ff41" opacity="0.75">1</text>
<text class="c" x="987" y="160" fill="#fff" opacity="1">7</text>
</g>
</g>
</svg>